<mxfile host="app.diagrams.net" modified="2023-11-16T18:10:11.953Z" agent="Mozilla/5.0 (Windows NT 10.0; Win64; x64) AppleWebKit/537.36 (KHTML, like Gecko) Chrome/119.0.0.0 Safari/537.36 Edg/119.0.0.0" etag="AQxf4RHqCTMl-GL7oMZ3" version="21.8.0" type="github">
  <diagram id="q6EtwT-zD9d8GnBGvhUz" name="Page-1">
    <mxGraphModel dx="2011" dy="916" grid="1" gridSize="10" guides="1" tooltips="1" connect="1" arrows="1" fold="1" page="1" pageScale="1" pageWidth="1100" pageHeight="850" math="0" shadow="0">
      <root>
        <mxCell id="0" />
        <mxCell id="1" parent="0" />
        <mxCell id="u41iJmBul1NQoNp-y63D-29" style="edgeStyle=orthogonalEdgeStyle;rounded=0;orthogonalLoop=1;jettySize=auto;html=1;entryX=0;entryY=0.5;entryDx=0;entryDy=0;entryPerimeter=0;startArrow=classic;startFill=1;strokeWidth=2;exitX=0.875;exitY=0.5;exitDx=0;exitDy=0;exitPerimeter=0;fillColor=#f8cecc;strokeColor=#b85450;" parent="1" source="LpFCpJJtLy2Ta8kGQRxm-1" target="u41iJmBul1NQoNp-y63D-24" edge="1">
          <mxGeometry relative="1" as="geometry" />
        </mxCell>
        <mxCell id="u41iJmBul1NQoNp-y63D-31" style="edgeStyle=orthogonalEdgeStyle;rounded=0;orthogonalLoop=1;jettySize=auto;html=1;entryX=0;entryY=0.5;entryDx=0;entryDy=0;startArrow=classic;startFill=1;strokeWidth=2;exitX=0.16;exitY=0.55;exitDx=0;exitDy=0;exitPerimeter=0;fillColor=#f8cecc;strokeColor=#b85450;" parent="1" source="LpFCpJJtLy2Ta8kGQRxm-1" target="LpFCpJJtLy2Ta8kGQRxm-5" edge="1">
          <mxGeometry relative="1" as="geometry">
            <Array as="points">
              <mxPoint x="110" y="125" />
              <mxPoint x="110" y="277" />
            </Array>
          </mxGeometry>
        </mxCell>
        <mxCell id="LpFCpJJtLy2Ta8kGQRxm-1" value="Internet" style="ellipse;shape=cloud;whiteSpace=wrap;html=1;" parent="1" vertex="1">
          <mxGeometry x="139" y="70" width="152" height="100" as="geometry" />
        </mxCell>
        <mxCell id="LpFCpJJtLy2Ta8kGQRxm-4" value="SCED / SC2G" style="swimlane;fillColor=#f8cecc;strokeColor=#b85450;" parent="1" vertex="1">
          <mxGeometry x="160" y="230" width="110" height="230" as="geometry" />
        </mxCell>
        <mxCell id="LpFCpJJtLy2Ta8kGQRxm-5" value="GC CAP" style="image;html=1;image=img/lib/clip_art/networking/Firewall_128x128.png;labelPosition=center;verticalLabelPosition=top;align=center;verticalAlign=bottom;" parent="LpFCpJJtLy2Ta8kGQRxm-4" vertex="1">
          <mxGeometry x="31.25" y="56" width="47.5" height="44" as="geometry" />
        </mxCell>
        <mxCell id="9IwPV1PEUAf9_cNait5j-16" value="GC TIP" style="image;html=1;image=img/lib/clip_art/networking/Firewall_128x128.png;labelPosition=center;verticalLabelPosition=top;align=center;verticalAlign=bottom;" parent="LpFCpJJtLy2Ta8kGQRxm-4" vertex="1">
          <mxGeometry x="31.25" y="144" width="47.5" height="44" as="geometry" />
        </mxCell>
        <mxCell id="LpFCpJJtLy2Ta8kGQRxm-7" value="AWS Cloud" style="swimlane;fillColor=#fff2cc;strokeColor=#d6b656;" parent="1" vertex="1">
          <mxGeometry x="400" y="40" width="830" height="560" as="geometry" />
        </mxCell>
        <mxCell id="LpFCpJJtLy2Ta8kGQRxm-27" value="Perimeter VPC" style="swimlane;startSize=23;fillColor=#f8cecc;strokeColor=#b85450;" parent="LpFCpJJtLy2Ta8kGQRxm-7" vertex="1">
          <mxGeometry x="30" y="140" width="200" height="160" as="geometry" />
        </mxCell>
        <mxCell id="LpFCpJJtLy2Ta8kGQRxm-9" value="&lt;b&gt;FortiGate NGF&lt;/b&gt;" style="image;html=1;image=img/lib/clip_art/networking/Firewall_128x128.png;labelPosition=center;verticalLabelPosition=top;align=center;verticalAlign=bottom;" parent="LpFCpJJtLy2Ta8kGQRxm-27" vertex="1">
          <mxGeometry x="130" y="58" width="52.5" height="44" as="geometry" />
        </mxCell>
        <mxCell id="u41iJmBul1NQoNp-y63D-54" style="edgeStyle=orthogonalEdgeStyle;rounded=0;orthogonalLoop=1;jettySize=auto;html=1;entryX=-0.052;entryY=0.856;entryDx=0;entryDy=0;entryPerimeter=0;startArrow=classic;startFill=1;endArrow=classic;endFill=1;strokeWidth=3;fillColor=#e1d5e7;strokeColor=#9673a6;" parent="LpFCpJJtLy2Ta8kGQRxm-27" source="IvLlfbLEJNB_qxHZJLbw-17" target="LpFCpJJtLy2Ta8kGQRxm-9" edge="1">
          <mxGeometry relative="1" as="geometry" />
        </mxCell>
        <mxCell id="IvLlfbLEJNB_qxHZJLbw-17" value="&lt;b&gt;&lt;font style=&quot;font-size: 12px&quot;&gt;FortiWeb WAF&lt;/font&gt;&lt;/b&gt;" style="outlineConnect=0;dashed=0;verticalLabelPosition=bottom;verticalAlign=top;align=center;html=1;shape=mxgraph.aws3.application_load_balancer;fillColor=#F58534;gradientColor=none;labelPosition=center;" parent="LpFCpJJtLy2Ta8kGQRxm-27" vertex="1">
          <mxGeometry x="30.25" y="84" width="46" height="50" as="geometry" />
        </mxCell>
        <mxCell id="LpFCpJJtLy2Ta8kGQRxm-28" value="Shared VPC Account" style="swimlane;fillColor=#d5e8d4;strokeColor=#82b366;startSize=23;" parent="LpFCpJJtLy2Ta8kGQRxm-7" vertex="1">
          <mxGeometry x="240" y="40" width="215" height="321" as="geometry" />
        </mxCell>
        <mxCell id="u41iJmBul1NQoNp-y63D-21" value="Transit Gateway&lt;br&gt;Routing Engine" style="points=[[0,0,0],[0.25,0,0],[0.5,0,0],[0.75,0,0],[1,0,0],[0,1,0],[0.25,1,0],[0.5,1,0],[0.75,1,0],[1,1,0],[0,0.25,0],[0,0.5,0],[0,0.75,0],[1,0.25,0],[1,0.5,0],[1,0.75,0]];outlineConnect=0;fontColor=#232F3E;gradientColor=#945DF2;gradientDirection=north;fillColor=#5A30B5;strokeColor=#ffffff;dashed=0;verticalLabelPosition=bottom;verticalAlign=top;align=center;html=1;fontSize=12;fontStyle=0;aspect=fixed;shape=mxgraph.aws4.resourceIcon;resIcon=mxgraph.aws4.transit_gateway;" parent="LpFCpJJtLy2Ta8kGQRxm-28" vertex="1">
          <mxGeometry x="80" y="40" width="70" height="70" as="geometry" />
        </mxCell>
        <mxCell id="u41iJmBul1NQoNp-y63D-57" value="DNS" style="points=[[0,0,0],[0.25,0,0],[0.5,0,0],[0.75,0,0],[1,0,0],[0,1,0],[0.25,1,0],[0.5,1,0],[0.75,1,0],[1,1,0],[0,0.25,0],[0,0.5,0],[0,0.75,0],[1,0.25,0],[1,0.5,0],[1,0.75,0]];outlineConnect=0;fontColor=#232F3E;gradientColor=#945DF2;gradientDirection=north;fillColor=#5A30B5;strokeColor=#ffffff;dashed=0;verticalLabelPosition=bottom;verticalAlign=top;align=center;html=1;fontSize=11;fontStyle=0;aspect=fixed;shape=mxgraph.aws4.resourceIcon;resIcon=mxgraph.aws4.route_53;" parent="LpFCpJJtLy2Ta8kGQRxm-28" vertex="1">
          <mxGeometry x="147" y="240" width="40" height="40" as="geometry" />
        </mxCell>
        <mxCell id="u41iJmBul1NQoNp-y63D-58" value="VPCs" style="outlineConnect=0;dashed=0;verticalLabelPosition=bottom;verticalAlign=top;align=center;html=1;shape=mxgraph.aws3.vpc;fillColor=#F58534;gradientColor=none;fontSize=11;" parent="LpFCpJJtLy2Ta8kGQRxm-28" vertex="1">
          <mxGeometry x="107" y="240" width="40" height="40" as="geometry" />
        </mxCell>
        <mxCell id="u41iJmBul1NQoNp-y63D-59" value="Routing" style="points=[[0.5,0,0],[1,0.5,0],[0.5,1,0],[0,0.5,0],[0.145,0.145,0],[0.8555,0.145,0],[0.855,0.8555,0],[0.145,0.855,0]];verticalLabelPosition=bottom;html=1;verticalAlign=top;aspect=fixed;align=center;pointerEvents=1;shape=mxgraph.cisco19.rect;prIcon=router;fillColor=#FAFAFA;strokeColor=#005073;fontSize=11;" parent="LpFCpJJtLy2Ta8kGQRxm-28" vertex="1">
          <mxGeometry x="67" y="240" width="40" height="40" as="geometry" />
        </mxCell>
        <mxCell id="u41iJmBul1NQoNp-y63D-61" value="Security&#xa;groups" style="fillColor=none;strokeColor=#DD3522;verticalAlign=top;fontStyle=0;labelPosition=center;verticalLabelPosition=bottom;align=center;fontSize=11;" parent="LpFCpJJtLy2Ta8kGQRxm-28" vertex="1">
          <mxGeometry x="27" y="240" width="40" height="41" as="geometry" />
        </mxCell>
        <mxCell id="u41iJmBul1NQoNp-y63D-64" value="" style="aspect=fixed;html=1;points=[];align=center;image;fontSize=12;image=img/lib/mscae/Network_Security_Groups_Classic.svg;fontColor=#000000;" parent="LpFCpJJtLy2Ta8kGQRxm-28" vertex="1">
          <mxGeometry x="32.39999999999998" y="240" width="29.6" height="40" as="geometry" />
        </mxCell>
        <mxCell id="IvLlfbLEJNB_qxHZJLbw-5" value="Dev VPC Account" style="swimlane;fillColor=#e1d5e7;strokeColor=#9673a6;" parent="LpFCpJJtLy2Ta8kGQRxm-7" vertex="1">
          <mxGeometry x="500" y="40" width="200" height="160" as="geometry" />
        </mxCell>
        <mxCell id="u41iJmBul1NQoNp-y63D-1" value="" style="group" parent="IvLlfbLEJNB_qxHZJLbw-5" vertex="1" connectable="0">
          <mxGeometry x="117" y="40" width="70" height="104" as="geometry" />
        </mxCell>
        <mxCell id="9IwPV1PEUAf9_cNait5j-4" value="Amazon EC2" style="outlineConnect=0;fontColor=#232F3E;gradientColor=none;strokeColor=#ffffff;fillColor=#232F3E;dashed=0;verticalLabelPosition=middle;verticalAlign=bottom;align=center;html=1;whiteSpace=wrap;fontSize=10;fontStyle=1;spacing=3;shape=mxgraph.aws4.productIcon;prIcon=mxgraph.aws4.ec2;" parent="u41iJmBul1NQoNp-y63D-1" vertex="1">
          <mxGeometry width="40" height="74" as="geometry" />
        </mxCell>
        <mxCell id="9IwPV1PEUAf9_cNait5j-5" value="Amazon EC2" style="outlineConnect=0;fontColor=#232F3E;gradientColor=none;strokeColor=#ffffff;fillColor=#232F3E;dashed=0;verticalLabelPosition=middle;verticalAlign=bottom;align=center;html=1;whiteSpace=wrap;fontSize=10;fontStyle=1;spacing=3;shape=mxgraph.aws4.productIcon;prIcon=mxgraph.aws4.ec2;" parent="u41iJmBul1NQoNp-y63D-1" vertex="1">
          <mxGeometry x="10" y="10" width="40" height="74" as="geometry" />
        </mxCell>
        <mxCell id="9IwPV1PEUAf9_cNait5j-6" value="Amazon EC2" style="outlineConnect=0;fontColor=#232F3E;gradientColor=none;strokeColor=#ffffff;fillColor=#232F3E;dashed=0;verticalLabelPosition=middle;verticalAlign=bottom;align=center;html=1;whiteSpace=wrap;fontSize=10;fontStyle=1;spacing=3;shape=mxgraph.aws4.productIcon;prIcon=mxgraph.aws4.ec2;" parent="u41iJmBul1NQoNp-y63D-1" vertex="1">
          <mxGeometry x="20" y="20" width="40" height="74" as="geometry" />
        </mxCell>
        <mxCell id="9IwPV1PEUAf9_cNait5j-7" value="Amazon EC2" style="outlineConnect=0;fontColor=#232F3E;gradientColor=none;strokeColor=#ffffff;fillColor=#232F3E;dashed=0;verticalLabelPosition=middle;verticalAlign=bottom;align=center;html=1;whiteSpace=wrap;fontSize=10;fontStyle=1;spacing=3;shape=mxgraph.aws4.productIcon;prIcon=mxgraph.aws4.ec2;" parent="u41iJmBul1NQoNp-y63D-1" vertex="1">
          <mxGeometry x="30" y="30" width="40" height="74" as="geometry" />
        </mxCell>
        <mxCell id="tBeQbdgGAIRm7S7WAKJs-5" style="edgeStyle=orthogonalEdgeStyle;rounded=0;orthogonalLoop=1;jettySize=auto;html=1;" edge="1" parent="IvLlfbLEJNB_qxHZJLbw-5" source="IvLlfbLEJNB_qxHZJLbw-18">
          <mxGeometry relative="1" as="geometry">
            <mxPoint x="110" y="85" as="targetPoint" />
          </mxGeometry>
        </mxCell>
        <mxCell id="IvLlfbLEJNB_qxHZJLbw-18" value="&lt;b&gt;&lt;font style=&quot;font-size: 13px&quot;&gt;Backend &lt;br&gt;ALB&lt;/font&gt;&lt;/b&gt;" style="outlineConnect=0;dashed=0;verticalLabelPosition=top;verticalAlign=bottom;align=center;html=1;shape=mxgraph.aws3.application_load_balancer;fillColor=#F58534;gradientColor=none;labelPosition=center;" parent="IvLlfbLEJNB_qxHZJLbw-5" vertex="1">
          <mxGeometry x="30" y="63.5" width="50" height="43" as="geometry" />
        </mxCell>
        <mxCell id="u41iJmBul1NQoNp-y63D-4" value="Prod VPC Account" style="swimlane;fillColor=#e1d5e7;strokeColor=#9673a6;" parent="LpFCpJJtLy2Ta8kGQRxm-7" vertex="1">
          <mxGeometry x="590" y="210" width="200" height="160" as="geometry" />
        </mxCell>
        <mxCell id="u41iJmBul1NQoNp-y63D-5" value="" style="group" parent="u41iJmBul1NQoNp-y63D-4" vertex="1" connectable="0">
          <mxGeometry x="117" y="40" width="70" height="104" as="geometry" />
        </mxCell>
        <mxCell id="u41iJmBul1NQoNp-y63D-6" value="Amazon EC2" style="outlineConnect=0;fontColor=#232F3E;gradientColor=none;strokeColor=#ffffff;fillColor=#232F3E;dashed=0;verticalLabelPosition=middle;verticalAlign=bottom;align=center;html=1;whiteSpace=wrap;fontSize=10;fontStyle=1;spacing=3;shape=mxgraph.aws4.productIcon;prIcon=mxgraph.aws4.ec2;" parent="u41iJmBul1NQoNp-y63D-5" vertex="1">
          <mxGeometry width="40" height="74" as="geometry" />
        </mxCell>
        <mxCell id="u41iJmBul1NQoNp-y63D-7" value="Amazon EC2" style="outlineConnect=0;fontColor=#232F3E;gradientColor=none;strokeColor=#ffffff;fillColor=#232F3E;dashed=0;verticalLabelPosition=middle;verticalAlign=bottom;align=center;html=1;whiteSpace=wrap;fontSize=10;fontStyle=1;spacing=3;shape=mxgraph.aws4.productIcon;prIcon=mxgraph.aws4.ec2;" parent="u41iJmBul1NQoNp-y63D-5" vertex="1">
          <mxGeometry x="10" y="10" width="40" height="74" as="geometry" />
        </mxCell>
        <mxCell id="u41iJmBul1NQoNp-y63D-8" value="Amazon EC2" style="outlineConnect=0;fontColor=#232F3E;gradientColor=none;strokeColor=#ffffff;fillColor=#232F3E;dashed=0;verticalLabelPosition=middle;verticalAlign=bottom;align=center;html=1;whiteSpace=wrap;fontSize=10;fontStyle=1;spacing=3;shape=mxgraph.aws4.productIcon;prIcon=mxgraph.aws4.ec2;" parent="u41iJmBul1NQoNp-y63D-5" vertex="1">
          <mxGeometry x="20" y="20" width="40" height="74" as="geometry" />
        </mxCell>
        <mxCell id="u41iJmBul1NQoNp-y63D-9" value="Amazon EC2" style="outlineConnect=0;fontColor=#232F3E;gradientColor=none;strokeColor=#ffffff;fillColor=#232F3E;dashed=0;verticalLabelPosition=middle;verticalAlign=bottom;align=center;html=1;whiteSpace=wrap;fontSize=10;fontStyle=1;spacing=3;shape=mxgraph.aws4.productIcon;prIcon=mxgraph.aws4.ec2;" parent="u41iJmBul1NQoNp-y63D-5" vertex="1">
          <mxGeometry x="30" y="30" width="40" height="74" as="geometry" />
        </mxCell>
        <mxCell id="tBeQbdgGAIRm7S7WAKJs-6" style="edgeStyle=orthogonalEdgeStyle;rounded=0;orthogonalLoop=1;jettySize=auto;html=1;" edge="1" parent="u41iJmBul1NQoNp-y63D-4" source="u41iJmBul1NQoNp-y63D-10">
          <mxGeometry relative="1" as="geometry">
            <mxPoint x="100" y="80" as="targetPoint" />
          </mxGeometry>
        </mxCell>
        <mxCell id="u41iJmBul1NQoNp-y63D-10" value="&lt;b&gt;&lt;font style=&quot;font-size: 13px&quot;&gt;Backend &lt;br&gt;ALB&lt;/font&gt;&lt;/b&gt;" style="outlineConnect=0;dashed=0;verticalLabelPosition=top;verticalAlign=bottom;align=center;html=1;shape=mxgraph.aws3.application_load_balancer;fillColor=#F58534;gradientColor=none;labelPosition=center;" parent="u41iJmBul1NQoNp-y63D-4" vertex="1">
          <mxGeometry x="20" y="58.5" width="50" height="43" as="geometry" />
        </mxCell>
        <mxCell id="H63oxOc87W7VJQa8DCFo-1" value="Operations Account" style="swimlane;fillColor=#e1d5e7;strokeColor=#9673a6;" parent="LpFCpJJtLy2Ta8kGQRxm-7" vertex="1">
          <mxGeometry x="500" y="385" width="200" height="160" as="geometry" />
        </mxCell>
        <mxCell id="H63oxOc87W7VJQa8DCFo-8" value="&lt;b&gt;FortiAnalyzer&lt;/b&gt;" style="sketch=0;points=[[0,0,0],[0.25,0,0],[0.5,0,0],[0.75,0,0],[1,0,0],[0,1,0],[0.25,1,0],[0.5,1,0],[0.75,1,0],[1,1,0],[0,0.25,0],[0,0.5,0],[0,0.75,0],[1,0.25,0],[1,0.5,0],[1,0.75,0]];outlineConnect=0;fontColor=#232F3E;fillColor=#01A88D;strokeColor=#ffffff;dashed=0;verticalLabelPosition=bottom;verticalAlign=top;align=center;html=1;fontSize=12;fontStyle=0;aspect=fixed;shape=mxgraph.aws4.resourceIcon;resIcon=mxgraph.aws4.fraud_detector;" parent="H63oxOc87W7VJQa8DCFo-1" vertex="1">
          <mxGeometry x="99" y="41" width="78" height="78" as="geometry" />
        </mxCell>
        <mxCell id="u41iJmBul1NQoNp-y63D-24" value="AWS Internet&lt;br&gt;Gateway" style="outlineConnect=0;dashed=0;verticalLabelPosition=top;verticalAlign=bottom;align=center;html=1;shape=mxgraph.aws3.internet_gateway;fillColor=#F58534;gradientColor=none;labelPosition=center;" parent="LpFCpJJtLy2Ta8kGQRxm-7" vertex="1">
          <mxGeometry x="-20" y="80" width="40" height="40" as="geometry" />
        </mxCell>
        <mxCell id="u41iJmBul1NQoNp-y63D-35" style="edgeStyle=orthogonalEdgeStyle;rounded=0;orthogonalLoop=1;jettySize=auto;html=1;entryX=0.145;entryY=0.855;entryDx=0;entryDy=0;entryPerimeter=0;startArrow=classic;startFill=1;strokeWidth=3;fillColor=#f8cecc;strokeColor=#b85450;endArrow=none;endFill=0;exitX=0;exitY=0.5;exitDx=0;exitDy=0;exitPerimeter=0;" parent="LpFCpJJtLy2Ta8kGQRxm-7" source="IvLlfbLEJNB_qxHZJLbw-17" target="u41iJmBul1NQoNp-y63D-24" edge="1">
          <mxGeometry relative="1" as="geometry">
            <mxPoint x="-60" y="190" as="sourcePoint" />
          </mxGeometry>
        </mxCell>
        <mxCell id="u41iJmBul1NQoNp-y63D-52" style="edgeStyle=orthogonalEdgeStyle;rounded=0;orthogonalLoop=1;jettySize=auto;html=1;exitX=0;exitY=0.25;exitDx=0;exitDy=0;entryX=0.855;entryY=0.855;entryDx=0;entryDy=0;entryPerimeter=0;startArrow=none;startFill=0;endArrow=classic;endFill=1;strokeWidth=3;fillColor=#d5e8d4;strokeColor=#82b366;" parent="LpFCpJJtLy2Ta8kGQRxm-7" source="LpFCpJJtLy2Ta8kGQRxm-9" target="u41iJmBul1NQoNp-y63D-24" edge="1">
          <mxGeometry relative="1" as="geometry" />
        </mxCell>
        <mxCell id="tBeQbdgGAIRm7S7WAKJs-2" style="edgeStyle=orthogonalEdgeStyle;rounded=0;orthogonalLoop=1;jettySize=auto;html=1;entryX=0;entryY=0.5;entryDx=0;entryDy=0;entryPerimeter=0;" edge="1" parent="LpFCpJJtLy2Ta8kGQRxm-7" source="u41iJmBul1NQoNp-y63D-21" target="u41iJmBul1NQoNp-y63D-10">
          <mxGeometry relative="1" as="geometry">
            <Array as="points">
              <mxPoint x="355" y="240" />
              <mxPoint x="530" y="240" />
              <mxPoint x="530" y="290" />
            </Array>
          </mxGeometry>
        </mxCell>
        <mxCell id="tBeQbdgGAIRm7S7WAKJs-3" style="edgeStyle=orthogonalEdgeStyle;rounded=0;orthogonalLoop=1;jettySize=auto;html=1;entryX=0.5;entryY=1;entryDx=0;entryDy=0;entryPerimeter=0;" edge="1" parent="LpFCpJJtLy2Ta8kGQRxm-7" source="u41iJmBul1NQoNp-y63D-21" target="IvLlfbLEJNB_qxHZJLbw-18">
          <mxGeometry relative="1" as="geometry">
            <Array as="points">
              <mxPoint x="355" y="240" />
              <mxPoint x="555" y="240" />
            </Array>
          </mxGeometry>
        </mxCell>
        <mxCell id="tBeQbdgGAIRm7S7WAKJs-4" style="edgeStyle=orthogonalEdgeStyle;rounded=0;orthogonalLoop=1;jettySize=auto;html=1;entryX=0;entryY=0.5;entryDx=0;entryDy=0;entryPerimeter=0;" edge="1" parent="LpFCpJJtLy2Ta8kGQRxm-7" source="u41iJmBul1NQoNp-y63D-21" target="H63oxOc87W7VJQa8DCFo-8">
          <mxGeometry relative="1" as="geometry">
            <Array as="points">
              <mxPoint x="355" y="240" />
              <mxPoint x="480" y="240" />
              <mxPoint x="480" y="465" />
            </Array>
          </mxGeometry>
        </mxCell>
        <mxCell id="LpFCpJJtLy2Ta8kGQRxm-8" value="ISED Legacy" style="swimlane;fillColor=#dae8fc;strokeColor=#6c8ebf;" parent="1" vertex="1">
          <mxGeometry x="400" y="620" width="650" height="240" as="geometry" />
        </mxCell>
        <mxCell id="9IwPV1PEUAf9_cNait5j-22" value="ISED Firewall" style="swimlane;fillColor=#f8cecc;strokeColor=#b85450;" parent="LpFCpJJtLy2Ta8kGQRxm-8" vertex="1">
          <mxGeometry x="30" y="40" width="120" height="130" as="geometry" />
        </mxCell>
        <mxCell id="9IwPV1PEUAf9_cNait5j-18" value="ISED Parapet&lt;br&gt;&amp;nbsp;OZ Firewall" style="image;html=1;image=img/lib/clip_art/networking/Firewall_128x128.png;labelPosition=center;verticalLabelPosition=top;align=center;verticalAlign=bottom;" parent="9IwPV1PEUAf9_cNait5j-22" vertex="1">
          <mxGeometry x="41.25" y="60" width="47.5" height="44" as="geometry" />
        </mxCell>
        <mxCell id="9IwPV1PEUAf9_cNait5j-23" value="On-Prem Resrouces" style="swimlane;fillColor=#e1d5e7;strokeColor=#9673a6;" parent="LpFCpJJtLy2Ta8kGQRxm-8" vertex="1">
          <mxGeometry x="190" y="40" width="430" height="130" as="geometry" />
        </mxCell>
        <mxCell id="9IwPV1PEUAf9_cNait5j-24" value="&lt;span style=&quot;font-size: 13px&quot;&gt;&lt;b&gt;HTTP &lt;br&gt;Load-balancer&lt;/b&gt;&lt;/span&gt;" style="outlineConnect=0;dashed=0;verticalLabelPosition=top;verticalAlign=bottom;align=center;html=1;shape=mxgraph.aws3.application_load_balancer;fillColor=#F58534;gradientColor=none;labelPosition=center;" parent="9IwPV1PEUAf9_cNait5j-23" vertex="1">
          <mxGeometry x="40" y="60" width="40" height="45" as="geometry" />
        </mxCell>
        <mxCell id="9IwPV1PEUAf9_cNait5j-27" value="Vmware Environment" style="pointerEvents=1;shadow=0;dashed=0;html=1;strokeColor=none;fillColor=#4495D1;labelPosition=center;verticalLabelPosition=top;verticalAlign=bottom;align=center;outlineConnect=0;shape=mxgraph.veeam.cluster;fontSize=14;" parent="9IwPV1PEUAf9_cNait5j-23" vertex="1">
          <mxGeometry x="140" y="60" width="102.8" height="49.2" as="geometry" />
        </mxCell>
        <mxCell id="9IwPV1PEUAf9_cNait5j-29" value="IBM" style="aspect=fixed;perimeter=ellipsePerimeter;html=1;align=center;shadow=0;dashed=0;spacingTop=3;image;image=img/lib/active_directory/databases.svg;fontSize=14;labelPosition=center;verticalLabelPosition=top;verticalAlign=bottom;" parent="9IwPV1PEUAf9_cNait5j-23" vertex="1">
          <mxGeometry x="280" y="60" width="50" height="49" as="geometry" />
        </mxCell>
        <mxCell id="u41iJmBul1NQoNp-y63D-15" style="edgeStyle=orthogonalEdgeStyle;rounded=0;orthogonalLoop=1;jettySize=auto;html=1;exitX=1;exitY=0.5;exitDx=0;exitDy=0;entryX=0;entryY=0.5;entryDx=0;entryDy=0;entryPerimeter=0;startArrow=classic;startFill=1;strokeWidth=2;" parent="LpFCpJJtLy2Ta8kGQRxm-8" source="9IwPV1PEUAf9_cNait5j-18" target="9IwPV1PEUAf9_cNait5j-24" edge="1">
          <mxGeometry relative="1" as="geometry" />
        </mxCell>
        <mxCell id="u41iJmBul1NQoNp-y63D-17" style="edgeStyle=orthogonalEdgeStyle;rounded=0;orthogonalLoop=1;jettySize=auto;html=1;entryX=0.5;entryY=1;entryDx=0;entryDy=0;startArrow=classic;startFill=1;strokeWidth=2;" parent="LpFCpJJtLy2Ta8kGQRxm-8" source="9IwPV1PEUAf9_cNait5j-27" target="9IwPV1PEUAf9_cNait5j-18" edge="1">
          <mxGeometry relative="1" as="geometry">
            <Array as="points">
              <mxPoint x="381" y="210" />
              <mxPoint x="95" y="210" />
            </Array>
          </mxGeometry>
        </mxCell>
        <mxCell id="u41iJmBul1NQoNp-y63D-18" style="edgeStyle=orthogonalEdgeStyle;rounded=0;orthogonalLoop=1;jettySize=auto;html=1;exitX=0.5;exitY=1;exitDx=0;exitDy=0;entryX=0.5;entryY=1;entryDx=0;entryDy=0;startArrow=classic;startFill=1;strokeWidth=2;" parent="LpFCpJJtLy2Ta8kGQRxm-8" source="9IwPV1PEUAf9_cNait5j-29" target="9IwPV1PEUAf9_cNait5j-18" edge="1">
          <mxGeometry relative="1" as="geometry">
            <Array as="points">
              <mxPoint x="495" y="210" />
              <mxPoint x="95" y="210" />
            </Array>
          </mxGeometry>
        </mxCell>
        <mxCell id="u41iJmBul1NQoNp-y63D-34" value="IPSec Tunnel" style="edgeStyle=orthogonalEdgeStyle;rounded=0;orthogonalLoop=1;jettySize=auto;html=1;exitX=1;exitY=0.5;exitDx=0;exitDy=0;exitPerimeter=0;startArrow=classic;startFill=1;strokeWidth=3;fillColor=#d5e8d4;strokeColor=#82b366;" parent="1" source="u41iJmBul1NQoNp-y63D-24" edge="1">
          <mxGeometry relative="1" as="geometry">
            <mxPoint x="715" y="140" as="targetPoint" />
            <Array as="points">
              <mxPoint x="568" y="140" />
              <mxPoint x="568" y="141" />
            </Array>
          </mxGeometry>
        </mxCell>
        <mxCell id="u41iJmBul1NQoNp-y63D-46" style="edgeStyle=orthogonalEdgeStyle;rounded=0;orthogonalLoop=1;jettySize=auto;html=1;entryX=0.145;entryY=0.855;entryDx=0;entryDy=0;entryPerimeter=0;startArrow=classic;startFill=1;endArrow=classic;endFill=1;strokeWidth=3;fillColor=#dae8fc;strokeColor=#6c8ebf;" parent="1" source="LpFCpJJtLy2Ta8kGQRxm-5" target="IvLlfbLEJNB_qxHZJLbw-17" edge="1">
          <mxGeometry relative="1" as="geometry" />
        </mxCell>
        <mxCell id="u41iJmBul1NQoNp-y63D-47" value="MACSec Tunnel PB rated" style="edgeStyle=orthogonalEdgeStyle;rounded=0;orthogonalLoop=1;jettySize=auto;html=1;entryX=0.5;entryY=1;entryDx=0;entryDy=0;startArrow=classic;startFill=1;endArrow=classic;endFill=1;strokeWidth=3;" parent="1" source="9IwPV1PEUAf9_cNait5j-16" target="LpFCpJJtLy2Ta8kGQRxm-9" edge="1">
          <mxGeometry relative="1" as="geometry" />
        </mxCell>
        <mxCell id="tBeQbdgGAIRm7S7WAKJs-1" style="edgeStyle=orthogonalEdgeStyle;rounded=0;orthogonalLoop=1;jettySize=auto;html=1;exitX=0;exitY=0.5;exitDx=0;exitDy=0;entryX=0;entryY=0.5;entryDx=0;entryDy=0;" edge="1" parent="1" source="9IwPV1PEUAf9_cNait5j-16" target="9IwPV1PEUAf9_cNait5j-18">
          <mxGeometry relative="1" as="geometry" />
        </mxCell>
      </root>
    </mxGraphModel>
  </diagram>
</mxfile>
